<svg width="119" height="121" viewBox="0 0 119 121" fill="none" xmlns="http://www.w3.org/2000/svg">
<path d="M38.2867 62.0326H32.6767V67.7326H28.5967V62.0326H22.9867V58.1626H28.5967V52.4326H32.6767V58.1626H38.2867V62.0326ZM40.0749 67.4326C46.8549 62.7326 50.2449 58.8326 50.2449 55.7326C50.2449 54.7926 50.0149 54.0526 49.5549 53.5126C49.1149 52.9726 48.4149 52.7026 47.4549 52.7026C45.4749 52.7026 44.4249 54.0526 44.3049 56.7526H40.1949C40.3149 54.2526 41.0749 52.3626 42.4749 51.0826C43.8749 49.7826 45.6449 49.1326 47.7849 49.1326C49.9649 49.1326 51.6349 49.7026 52.7949 50.8426C53.9749 51.9626 54.5649 53.4626 54.5649 55.3426C54.5649 56.8226 54.1249 58.3126 53.2449 59.8126C52.3849 61.2926 51.2849 62.6626 49.9449 63.9226C48.6049 65.1626 47.1949 66.2326 45.7149 67.1326H54.9849V70.5826H40.0749V67.4326ZM68.4131 55.3426C68.0931 53.2626 67.0331 52.2226 65.2331 52.2226C63.8331 52.2226 62.8131 52.8426 62.1731 54.0826C61.5331 55.3026 61.2531 57.2226 61.3331 59.8426C61.6531 58.8826 62.2731 58.1226 63.1931 57.5626C64.1331 56.9826 65.2231 56.6926 66.4631 56.6926C68.5031 56.6926 70.1031 57.3126 71.2631 58.5526C72.4431 59.7726 73.0331 61.5126 73.0331 63.7726C73.0331 65.1726 72.7531 66.4126 72.1931 67.4926C71.6331 68.5726 70.7931 69.4226 69.6731 70.0426C68.5731 70.6626 67.2331 70.9726 65.6531 70.9726C62.5731 70.9726 60.4531 70.0226 59.2931 68.1226C58.1331 66.2026 57.5531 63.5626 57.5531 60.2026C57.5531 56.3426 58.1731 53.4826 59.4131 51.6226C60.6731 49.7626 62.7031 48.8326 65.5031 48.8326C67.6431 48.8326 69.2831 49.4426 70.4231 50.6626C71.5631 51.8826 72.2131 53.4426 72.3731 55.3426H68.4131ZM61.6931 63.4726C61.6931 64.5926 62.0131 65.5226 62.6531 66.2626C63.3131 66.9826 64.2731 67.3426 65.5331 67.3426C66.6131 67.3426 67.4731 67.0226 68.1131 66.3826C68.7531 65.7426 69.0731 64.8526 69.0731 63.7126C69.0731 62.5126 68.7431 61.5926 68.0831 60.9526C67.4431 60.3126 66.5731 59.9926 65.4731 59.9926C64.4331 59.9926 63.5431 60.2926 62.8031 60.8926C62.0631 61.4926 61.6931 62.3526 61.6931 63.4726ZM79.9691 49.2526C81.3691 49.2526 82.5091 49.6826 83.3891 50.5426C84.2891 51.3826 84.7391 52.5526 84.7391 54.0526C84.7391 55.5526 84.2891 56.7326 83.3891 57.5926C82.5091 58.4326 81.3691 58.8526 79.9691 58.8526C78.5691 58.8526 77.4191 58.4326 76.5191 57.5926C75.6391 56.7326 75.1991 55.5526 75.1991 54.0526C75.1991 52.5526 75.6391 51.3826 76.5191 50.5426C77.4191 49.6826 78.5691 49.2526 79.9691 49.2526ZM93.5291 49.5226L81.7391 70.7626H77.6591L89.4491 49.5226H93.5291ZM78.0491 54.0526C78.0491 54.7326 78.2191 55.2826 78.5591 55.7026C78.8991 56.1026 79.3591 56.3026 79.9391 56.3026C80.5191 56.3026 80.9891 56.1026 81.3491 55.7026C81.7091 55.2826 81.8891 54.7326 81.8891 54.0526C81.8891 53.3726 81.7091 52.8326 81.3491 52.4326C80.9891 52.0126 80.5191 51.8026 79.9391 51.8026C79.3591 51.8026 78.8991 52.0126 78.5591 52.4326C78.2191 52.8326 78.0491 53.3726 78.0491 54.0526ZM91.2491 61.4326C92.6491 61.4326 93.7891 61.8626 94.6691 62.7226C95.5491 63.5626 95.9891 64.7326 95.9891 66.2326C95.9891 67.7326 95.5491 68.9126 94.6691 69.7726C93.7891 70.6126 92.6491 71.0326 91.2491 71.0326C89.8491 71.0326 88.6991 70.6126 87.7991 69.7726C86.9191 68.9126 86.4791 67.7326 86.4791 66.2326C86.4791 64.7326 86.9191 63.5626 87.7991 62.7226C88.6991 61.8626 89.8491 61.4326 91.2491 61.4326ZM89.3291 66.2326C89.3291 66.9326 89.4991 67.4926 89.8391 67.9126C90.1791 68.3126 90.6391 68.5126 91.2191 68.5126C91.7991 68.5126 92.2691 68.3126 92.6291 67.9126C92.9891 67.4926 93.1691 66.9326 93.1691 66.2326C93.1691 65.5526 92.9891 65.0026 92.6291 64.5826C92.2691 64.1626 91.7991 63.9526 91.2191 63.9526C90.6391 63.9526 90.1791 64.1626 89.8391 64.5826C89.4991 64.9826 89.3291 65.5326 89.3291 66.2326Z" fill="#489DFF"/>
<path d="M59.2237 0.462395C47.5057 0.468419 36.0525 3.975 26.3123 10.5388C16.572 17.1026 8.98195 26.4289 4.50179 37.3386C0.0216367 48.2482 -1.14748 60.2514 1.14226 71.8305C3.432 83.4095 9.07778 94.0445 17.3658 102.391C25.6538 110.737 36.2119 116.42 47.7052 118.722C59.1985 121.023 71.111 119.839 81.9364 115.319C92.7619 110.799 102.014 103.147 108.524 93.33C115.033 83.5127 118.508 71.9711 118.508 60.1645C118.492 44.3302 112.24 29.1495 101.124 17.9558C90.0091 6.7621 74.9392 0.470457 59.2237 0.462395ZM59.2237 108.81C49.6569 108.81 40.305 105.951 32.3505 100.596C24.396 95.2407 18.1962 87.6291 14.5352 78.7237C10.8741 69.8183 9.91621 60.019 11.7826 50.5651C13.649 41.1112 18.2558 32.4272 25.0206 25.6113C31.7853 18.7954 40.4041 14.1537 49.7871 12.2732C59.1701 10.3927 68.8958 11.3578 77.7344 15.0465C86.5729 18.7353 94.1274 24.982 99.4424 32.9966C104.757 41.0113 107.594 50.434 107.594 60.0731C107.594 72.9988 102.498 85.3951 93.4269 94.5349C84.3556 103.675 72.0524 108.81 59.2237 108.81Z" fill="#0FAFE9" fill-opacity="0.1"/>
<path d="M59.1928 120.323C58.4232 120.336 57.659 120.192 56.9456 119.901C56.2322 119.61 55.5841 119.177 55.0398 118.629C54.4955 118.081 54.0662 117.428 53.7773 116.709C53.4884 115.99 53.3459 115.22 53.3581 114.445C53.3572 112.865 53.9651 111.347 55.0536 110.211C56.1421 109.074 57.6262 108.408 59.1928 108.353C70.5671 108.279 81.559 104.207 90.2709 96.8386C97.6801 90.4092 102.973 81.8608 105.446 72.3289C107.919 62.797 107.455 52.7326 104.117 43.4723C100.661 34.2656 94.52 26.329 86.5011 20.7071C78.4822 15.0851 68.9618 12.0414 59.1928 11.9764C58.1569 11.9746 57.1407 11.6905 56.252 11.1543C55.3632 10.6181 54.6349 9.84963 54.1442 8.93038C53.6334 7.99762 53.3655 6.94967 53.3655 5.88436C53.3655 4.81904 53.6334 3.77109 54.1442 2.83833C54.6623 1.93821 55.4152 1.19829 56.3213 0.69889C57.2273 0.19949 58.2518 -0.0403071 59.2835 0.00553039C68.9225 0.0143815 78.4161 2.3744 86.953 6.88391C95.4899 11.3934 102.816 17.9184 108.306 25.9011C113.796 33.8839 117.286 43.0872 118.478 52.7246C119.67 62.3619 118.529 72.1468 115.152 81.243C110.776 92.6326 103.116 102.442 93.1595 109.407C83.2025 116.372 71.404 120.174 59.2835 120.323H59.1928Z" fill="#0FAFE9"/>
</svg>
